<svg xmlns="http://www.w3.org/2000/svg" width="255.095" height="112.126" viewBox="0 0 255.095 112.126"><g transform="translate(767.873 177.268)"><g transform="translate(-794 -277)"><path d="M34.093,148.44a2.56,2.56,0,0,0,1.087-.235,3.08,3.08,0,0,0,.9-.625,2.813,2.813,0,0,0,.6-.929,3.028,3.028,0,0,0,.22-1.152,2.915,2.915,0,0,0-.22-1.138,3,3,0,0,0-.6-.93,2.956,2.956,0,0,0-.9-.638,2.546,2.546,0,0,0-1.087-.236H29.028v5.883Zm-.01-8.453a5.429,5.429,0,0,1,2.182.443,5.843,5.843,0,0,1,1.782,1.187,5.6,5.6,0,0,1,1.2,1.755,5.349,5.349,0,0,1,.441,2.167,5.438,5.438,0,0,1-.441,2.182,5.532,5.532,0,0,1-1.2,1.769,5.608,5.608,0,0,1-3.953,1.6l-5.07.029v8.453h-2.9V139.987Z"/><path d="M57.34,148.412a2.676,2.676,0,0,0,1.1-.234,2.844,2.844,0,0,0,.9-.622,2.948,2.948,0,0,0,.6-.925,3.015,3.015,0,0,0,.221-1.147,2.91,2.91,0,0,0-.221-1.132,3.188,3.188,0,0,0-.6-.926,2.754,2.754,0,0,0-.9-.635,2.677,2.677,0,0,0-1.1-.235H52.285v5.884Zm8.15,11.16H61.871l-6.161-8.453H52.285v8.453h-2.9V139.987H57.34a5.537,5.537,0,0,1,2.2.442,5.751,5.751,0,0,1,1.8,1.188,5.539,5.539,0,0,1,1.2,1.754,5.356,5.356,0,0,1,.442,2.169,5.453,5.453,0,0,1-.3,1.823,5.545,5.545,0,0,1-.844,1.547,5.714,5.714,0,0,1-1.283,1.2,5.5,5.5,0,0,1-1.63.76Z"/></g><path d="M86.51,139.987v2.6H77.422v5.331h8.093v2.679H77.422v6.3H86.51v2.68H74.522V139.987Z" transform="translate(-794 -277)"/><path d="M108.747,139.987v2.6H99.659v5.331h8.093v2.679H99.659v6.3h9.088v2.68H96.759V139.987Z" transform="translate(-794 -277)"/><path d="M135.679,139.987h2.928v19.585h-2.9V144.546l-5.718,7.872h-2.237L122,144.546v15.027h-2.9V139.987H122l6.865,9.419Z" transform="translate(-794 -277)"/><path d="M154.186,142.363V157.2h1.408v2.376h-5.773V157.2h1.464V142.363h-1.464v-2.376h5.773v2.376Z" transform="translate(-794 -277)"/><path d="M183.659,139.987v19.585h-2.928l-10.939-15.027v15.027h-3.011V139.987h3.039l10.938,15.11v-15.11Z" transform="translate(-794 -277)"/><path d="M205.868,139.987v2.6H196.78v5.331h8.094v2.679H196.78v6.3h9.088v2.68H193.88V139.987Z" transform="translate(-794 -277)"/><path d="M232.994,139.987v19.585h-2.929l-10.938-15.027v15.027h-3.011V139.987h3.039l10.938,15.11v-15.11Z" transform="translate(-794 -277)"/><path d="M281.222,139.987v2.6h-9.088v5.331h8.094v2.679h-8.094v6.3h9.088v2.68H269.234V139.987Z" transform="translate(-794 -277)"/><path d="M278.1,208.495H29.736V184.388H26.372v27.471H280.9V184.388h-2.8Z" transform="translate(-794 -277)" fill="#c1a03d"/><path d="M26.372,99.732V127.2h3.364V103.1H278.1V127.2h2.8V99.732Z" transform="translate(-794 -277)" fill="#c1a03d"/><path d="M170.162,178.419a3.709,3.709,0,0,0-.179-1.2,2.569,2.569,0,0,0-.51-.9,2.187,2.187,0,0,0-.805-.566,3.008,3.008,0,0,0-2.136,0,2.21,2.21,0,0,0-.807.566,2.559,2.559,0,0,0-.513.9,4.092,4.092,0,0,0,0,2.394,2.528,2.528,0,0,0,.513.9,2.215,2.215,0,0,0,.807.563,2.994,2.994,0,0,0,2.136,0,2.191,2.191,0,0,0,.805-.563,2.538,2.538,0,0,0,.51-.9,3.708,3.708,0,0,0,.179-1.2m1.542,0a4.535,4.535,0,0,1-.294,1.651,3.882,3.882,0,0,1-.833,1.315,3.778,3.778,0,0,1-1.295.866,4.688,4.688,0,0,1-3.358,0,3.82,3.82,0,0,1-1.3-.866,3.878,3.878,0,0,1-.838-1.315,4.737,4.737,0,0,1,0-3.3,3.888,3.888,0,0,1,.838-1.315,3.82,3.82,0,0,1,1.3-.866,4.378,4.378,0,0,1,1.677-.311,4.563,4.563,0,0,1,1.16.143,4.069,4.069,0,0,1,1,.4,3.645,3.645,0,0,1,.816.633,3.877,3.877,0,0,1,.613.833,4.127,4.127,0,0,1,.385,1,4.783,4.783,0,0,1,.131,1.132" transform="translate(-794 -277)"/><path d="M181.044,174.366v8.107h-.774a.688.688,0,0,1-.3-.059.708.708,0,0,1-.232-.2l-4.233-5.4c.023.247.033.475.033.684v4.979H174.21v-8.107H175a1.579,1.579,0,0,1,.166.008.4.4,0,0,1,.123.034.42.42,0,0,1,.1.073,1.288,1.288,0,0,1,.112.126l4.25,5.427c-.012-.131-.021-.26-.028-.387s-.012-.245-.012-.353v-4.928Z" transform="translate(-794 -277)"/><path d="M188.344,175.84a.528.528,0,0,1-.143.171.314.314,0,0,1-.188.053.486.486,0,0,1-.255-.087c-.091-.058-.2-.122-.328-.193a2.7,2.7,0,0,0-.445-.193,1.88,1.88,0,0,0-.6-.087,1.776,1.776,0,0,0-.549.076,1.149,1.149,0,0,0-.4.21.837.837,0,0,0-.238.322,1.065,1.065,0,0,0-.079.412.715.715,0,0,0,.16.477,1.351,1.351,0,0,0,.423.325,4.028,4.028,0,0,0,.6.241q.336.106.69.227a6.638,6.638,0,0,1,.69.28,2.394,2.394,0,0,1,.6.4,1.834,1.834,0,0,1,.423.6,2.079,2.079,0,0,1,.16.858,2.774,2.774,0,0,1-.189,1.028,2.362,2.362,0,0,1-.549.836,2.581,2.581,0,0,1-.883.56,3.241,3.241,0,0,1-1.194.205,3.819,3.819,0,0,1-.763-.076,4.019,4.019,0,0,1-.72-.215,3.885,3.885,0,0,1-.647-.337,3.108,3.108,0,0,1-.538-.437l.443-.723a.45.45,0,0,1,.145-.132.363.363,0,0,1,.191-.053.53.53,0,0,1,.3.115q.163.114.388.255a3.109,3.109,0,0,0,.523.255,2.034,2.034,0,0,0,.721.115,1.476,1.476,0,0,0,1-.306,1.1,1.1,0,0,0,.353-.877.815.815,0,0,0-.16-.522,1.292,1.292,0,0,0-.423-.339,3.22,3.22,0,0,0-.6-.233q-.336-.095-.684-.207a5.913,5.913,0,0,1-.684-.269,2.237,2.237,0,0,1-.6-.409,1.866,1.866,0,0,1-.423-.631,2.393,2.393,0,0,1-.16-.934,2.207,2.207,0,0,1,.177-.863,2.23,2.23,0,0,1,.513-.745,2.511,2.511,0,0,1,.83-.522,3.042,3.042,0,0,1,1.132-.2,3.792,3.792,0,0,1,1.323.224,3,3,0,0,1,1.032.628Z" transform="translate(-794 -277)"/><path d="M252.467,157.169a5.94,5.94,0,0,0,2.97-.773,7.329,7.329,0,0,0,2.306-2.044l2.017,1.933a10.6,10.6,0,0,1-3.219,2.569,8.623,8.623,0,0,1-4.074.994,9,9,0,0,1-3.756-.8,9.788,9.788,0,0,1-3.073-2.168,10.381,10.381,0,0,1-2.072-3.2,10.238,10.238,0,0,1,0-7.776,10.426,10.426,0,0,1,2.072-3.191,9.788,9.788,0,0,1,3.073-2.168,9,9,0,0,1,3.756-.8,8.5,8.5,0,0,1,3.5.732,10.884,10.884,0,0,1,2.941,1.92l-1.712,2.182a7.734,7.734,0,0,0-2.127-1.588,5.616,5.616,0,0,0-2.6-.622,5.983,5.983,0,0,0-2.638.594,6.815,6.815,0,0,0-2.14,1.616,7.986,7.986,0,0,0-1.451,2.362,7.852,7.852,0,0,0,0,5.718A7.8,7.8,0,0,0,247.689,155a6.731,6.731,0,0,0,2.14,1.588,6.1,6.1,0,0,0,2.638.58" transform="translate(-794 -277)"/><path d="M122.039,175.84a.528.528,0,0,1-.143.171.316.316,0,0,1-.188.053.486.486,0,0,1-.255-.087c-.092-.058-.2-.122-.328-.193a2.712,2.712,0,0,0-.446-.193,1.87,1.87,0,0,0-.6-.087,1.783,1.783,0,0,0-.55.076,1.144,1.144,0,0,0-.395.21.837.837,0,0,0-.238.322,1.047,1.047,0,0,0-.079.412.72.72,0,0,0,.16.477,1.34,1.34,0,0,0,.423.325,4.028,4.028,0,0,0,.6.241q.336.106.69.227a6.534,6.534,0,0,1,.689.28,2.376,2.376,0,0,1,.6.4,1.8,1.8,0,0,1,.423.6,2.063,2.063,0,0,1,.16.858,2.774,2.774,0,0,1-.188,1.028,2.375,2.375,0,0,1-.549.836,2.581,2.581,0,0,1-.883.56,3.234,3.234,0,0,1-1.194.205,3.819,3.819,0,0,1-.763-.076,4.018,4.018,0,0,1-.72-.215,3.9,3.9,0,0,1-.648-.337,3.147,3.147,0,0,1-.538-.437l.443-.723a.454.454,0,0,1,.146-.132.363.363,0,0,1,.191-.053.53.53,0,0,1,.3.115q.164.114.387.255a3.1,3.1,0,0,0,.525.255,2.019,2.019,0,0,0,.719.115,1.481,1.481,0,0,0,1-.306,1.1,1.1,0,0,0,.353-.877.815.815,0,0,0-.16-.522,1.3,1.3,0,0,0-.423-.339,3.248,3.248,0,0,0-.6-.233q-.336-.095-.684-.207a5.843,5.843,0,0,1-.684-.269,2.222,2.222,0,0,1-.6-.409,1.852,1.852,0,0,1-.423-.631,2.393,2.393,0,0,1-.16-.934,2.243,2.243,0,0,1,.69-1.608,2.517,2.517,0,0,1,.829-.522,3.047,3.047,0,0,1,1.133-.2,3.8,3.8,0,0,1,1.323.224,3,3,0,0,1,1.032.628Z" transform="translate(-794 -277)"/><path d="M131.238,178.419a3.709,3.709,0,0,0-.179-1.2,2.569,2.569,0,0,0-.51-.9,2.186,2.186,0,0,0-.8-.566,3.008,3.008,0,0,0-2.136,0,2.21,2.21,0,0,0-.807.566,2.559,2.559,0,0,0-.513.9,4.092,4.092,0,0,0,0,2.394,2.528,2.528,0,0,0,.513.9,2.215,2.215,0,0,0,.807.563,2.994,2.994,0,0,0,2.136,0,2.191,2.191,0,0,0,.8-.563,2.538,2.538,0,0,0,.51-.9,3.708,3.708,0,0,0,.179-1.2m1.542,0a4.535,4.535,0,0,1-.294,1.651,3.882,3.882,0,0,1-.833,1.315,3.778,3.778,0,0,1-1.295.866,4.688,4.688,0,0,1-3.358,0,3.82,3.82,0,0,1-1.3-.866,3.878,3.878,0,0,1-.838-1.315,4.737,4.737,0,0,1,0-3.3,3.888,3.888,0,0,1,.838-1.315,3.82,3.82,0,0,1,1.3-.866,4.378,4.378,0,0,1,1.677-.311,4.563,4.563,0,0,1,1.16.143,4.069,4.069,0,0,1,1,.4,3.645,3.645,0,0,1,.816.633,3.878,3.878,0,0,1,.613.833,4.127,4.127,0,0,1,.385,1,4.784,4.784,0,0,1,.131,1.132" transform="translate(-794 -277)"/><path d="M140.035,181.228v1.245h-4.749v-8.107h1.508v6.862Z" transform="translate(-794 -277)"/><path d="M145.327,181.256a1.979,1.979,0,0,0,.782-.146,1.594,1.594,0,0,0,.58-.409,1.8,1.8,0,0,0,.361-.639,2.61,2.61,0,0,0,.127-.841v-4.855h1.508v4.855a3.722,3.722,0,0,1-.233,1.337,2.969,2.969,0,0,1-1.723,1.755,4.088,4.088,0,0,1-2.81,0,2.969,2.969,0,0,1-1.723-1.755,3.722,3.722,0,0,1-.233-1.337v-4.855h1.508v4.849a2.63,2.63,0,0,0,.126.841,1.8,1.8,0,0,0,.365.642,1.6,1.6,0,0,0,.583.412,1.976,1.976,0,0,0,.782.146" transform="translate(-794 -277)"/><path d="M157.229,175.6h-2.445v6.868h-1.507V175.6h-2.445v-1.239h6.4Z" transform="translate(-794 -277)"/><rect width="1.514" height="8.107" transform="translate(-634.529 -102.634)"/></g></svg>