<svg id="Layer_1" data-name="Layer 1" xmlns="http://www.w3.org/2000/svg" viewBox="0 0 98.16 65"><defs><style>.cls-1{fill:none;stroke:#c09f3c;stroke-width:2px;}</style></defs><g id="Group_110" data-name="Group 110"><g id="Group_109" data-name="Group 109"><g id="Group_107" data-name="Group 107"><line id="Line_19" data-name="Line 19" class="cls-1" y1="1" x2="98.16" y2="1"/><line id="Line_20" data-name="Line 20" class="cls-1" x1="97.16" y1="1" x2="97.16" y2="27"/><line id="Line_21" data-name="Line 21" class="cls-1" x1="1" y1="1" x2="1" y2="27"/></g><g id="Group_108" data-name="Group 108"><line id="Line_19-2" data-name="Line 19-2" class="cls-1" x1="98.16" y1="64" y2="64"/><line id="Line_20-2" data-name="Line 20-2" class="cls-1" x1="1" y1="64" x2="1" y2="38"/><line id="Line_21-2" data-name="Line 21-2" class="cls-1" x1="97.16" y1="64" x2="97.16" y2="38"/></g></g><path id="Path_183" data-name="Path 183" d="M308.44,393.52a5.53,5.53,0,0,0,2.41-.52,6.89,6.89,0,0,0,2-1.38,6.11,6.11,0,0,0,1.34-2.06,6.78,6.78,0,0,0,.49-2.56,6.57,6.57,0,0,0-1.83-4.58,6.36,6.36,0,0,0-2-1.42,5.53,5.53,0,0,0-2.41-.52H297.21v13Zm0-18.74a12,12,0,0,1,4.84,1,13,13,0,0,1,3.95,2.63,12.5,12.5,0,0,1,2.67,3.89,11.9,11.9,0,0,1,1,4.81,12.28,12.28,0,0,1-3.64,8.76,12.43,12.43,0,0,1-8.77,3.55l-11.24.07v18.74h-6.43V374.78Z" transform="translate(-256.78 -363.78)"/></g></svg>