<svg version="1.1" id="fb8df35c-97a2-484c-ac16-3c830d03619c" xmlns="http://www.w3.org/2000/svg" x="0" y="0" viewBox="0 0 1028 854.5" xml:space="preserve"><style>.st0{fill:#f2f2f2}.st2{fill:#3f3d56}.st3{fill:#cbceda}.st4,.st5{fill:#6c63ff}.st5{opacity:.2;enable-background:new}.st7{fill:none;stroke:#6c63ff;stroke-miterlimit:10}.st9{fill:#575a89}.st10{fill:#3c354c}.st11{fill:#ffc1c7}.st12{opacity:.1;enable-background:new}.st13{fill:#ff6584}.st15{fill:#a0616a}.st16{fill:none;stroke:#3f3d56;stroke-width:4;stroke-miterlimit:10}.st17{fill:#57b894}.st18{fill:#656380}.st19{opacity:.2;enable-background:new}</style><path class="st0" d="M414.6 54.9l-15.5 9.9 9.4-17.1c-2.7-2.1-6-3.3-9.4-3.3h-.2c-1.1 0-2.2-.1-3.2-.2l-5.3 3.3 2.2-4.1c-3.7-1.3-6.9-3.8-9.2-7l-9.4 6 6-10.8c-5.5-6.6-12.9-10.7-21.1-10.7-9.8 0-18.5 5.8-24.1 14.9-3.4 5.5-9.5 8.8-16 8.6h-.5c-10.8 0-19.6 12.3-19.6 27.4S307.4 99 318.3 99c2.4 0 4.7-.6 6.8-1.7 7-3.7 16.3-3.7 23.7-.5 6.4 2.9 13.7 2.9 20.1 0 7.5-3.3 16.1-3.1 23.5.4 2.1 1.1 4.4 1.7 6.8 1.7 10.8 0 19.6-12.2 19.6-27.4-.1-5.7-1.5-11.5-4.2-16.6z"/><path d="M385.3 95c-5.6-1.1-11.5-.4-16.8 1.8-6.4 2.9-13.7 2.9-20.1 0-7.6-3.3-16.2-3.2-23.7.5-2.1 1.1-4.4 1.7-6.8 1.7-9.6 0-17.6-9.7-19.3-22.4 1.9-1.4 3.5-3.2 4.8-5.2 5.6-9.1 14.4-14.9 24.1-14.9s18.4 5.8 24 14.7c3.4 5.5 9.5 8.8 16 8.8h.2c7.8-.1 14.4 6 17.6 15z" opacity=".03"/><path class="st0" d="M282.1 481.3l-6.3-3.9-1.8-1.2c32.6-5.6 54.4-36.6 48.8-69.1-3.9-22.8-20.6-41.2-42.8-47.5l.3 24.7-13.5-26.8h-.2c-33-1.5-61 24-62.6 57-.1 1.1 0 2.3 0 3.4-4.7-5.4-9-11.1-11.8-17.5-5.7-12.8-5.8-27.3-5.4-44.9.9-34.9 2.4-70.1 4.4-105.1 29.2-3.3 51.8-27.3 53.2-56.6.1-1.8 0-3.6 0-5.4 0-.5 0-.9-.1-1.3-.1-1.7-.3-3.5-.5-5.2 0-.3-.1-.5-.1-.8-.2-1.4-.5-2.9-.9-4.3-.1-.5-.3-1-.4-1.6-.4-1.5-.9-3-1.4-4.5l-.6-1.5c-.4-1.1-.9-2.2-1.4-3.2-.3-.6-.5-1.1-.8-1.7-.1-.1-.1-.3-.2-.4-13-25.7-42.6-38.5-70.3-30.4l.4 32.1-13.4-26.6c-22.6 12.9-34.2 39.1-28.6 64.5h-.1c.1.4.2.8.3 1.3l.6 2.4.9 3c.2.7.5 1.5.8 2.2.4 1.1.9 2.1 1.3 3.1.3.6.5 1.2.8 1.8.8 1.5 1.6 3.1 2.5 4.5.3.5.7 1 1 1.5.6 1 1.3 2 2 2.9.4.6.9 1.2 1.3 1.7.7.8 1.3 1.6 2 2.4.5.6 1 1.1 1.5 1.7.7.8 1.5 1.5 2.3 2.3.5.5 1 1 1.6 1.5.9.8 1.8 1.5 2.7 2.3.5.4.9.8 1.4 1.1 1.4 1 2.9 2 4.4 3 .3.2.6.3.9.5 1.3.7 2.6 1.5 3.9 2.1.6.3 1.1.5 1.7.8 1.1.5 2.2 1 3.3 1.4l2 .7c1.1.4 2.2.7 3.4 1 .7.2 1.3.4 2 .5 1.2.3 2.5.5 3.7.8h.2c-.8 14.8-1.6 29.6-2.2 44.4-14.5-29.7-50.3-42.1-80-27.6-1 .5-2.1 1-3.1 1.6l10.6 29L78 276.5a59.407 59.407 0 00-19.3 41.3c-.3 5.5.2 11.1 1.5 16.5 7.6 32.2 39.8 52.1 71.9 44.6 16-3.8 29.8-14 38.1-28.3 0 1.5-.1 3-.1 4.5-.4 15.5-.9 34.9 6.9 52.1 5.2 11.7 13.7 21.2 22 29.7 5.4 5.5 11.1 10.9 16.8 16.1 5.7 7.6 13.1 13.8 21.6 18 9.5 7.3 19.3 14.2 29.5 20.5l6.3 3.9c5.7 3.5 11.5 7.2 17.3 10.9l-3-.3c-26-1.2-49.9 14.6-58.9 39l37.4 30.4-41.1-9.5c0 33.1 26.9 59.9 60 59.8 9 0 17.8-2 25.9-5.9l-2.7 3.5c-1.8 2.3-3.7 4.6-5.5 6.8-24.3 30.8-31.1 60.1-19.1 82.4l14.7-7.9c-11.8-21.7 5.9-49.5 17.4-64.1 1.8-2.2 3.5-4.5 5.4-6.7 15.5-19.3 33.2-41.2 32.7-68.1-.7-40.5-40-64.9-71.6-84.4zM553.1 437l7.8-4.9c.8-.5 1.5-1 2.2-1.4-34.5-5.9-60.3-35.1-62-70.1a72.5 72.5 0 016.5-34c9.1-20.2 26.7-35.4 48-41.4l-.4 30.8 16.9-33.5h.2c41.2-1.9 76.2 29.9 78.1 71.1.1 1.4 0 2.8 0 4.2 5.9-6.7 11.2-13.9 14.8-21.8 7.2-16 7.3-34 6.7-56-1.1-43.5-3-87.4-5.5-131.2-36.5-4.1-64.6-34-66.3-70.7-.1-2.3-.1-4.5 0-6.8 0-.6 0-1.1.1-1.7.1-2.2.3-4.3.7-6.4 0-.4.1-.7.2-1 .3-1.8.7-3.6 1.1-5.3.2-.6.3-1.3.5-2 .5-1.9 1.1-3.8 1.8-5.6.2-.6.5-1.2.7-1.8.5-1.4 1.1-2.7 1.7-4 .3-.7.6-1.4 1-2.1.1-.2.2-.4.2-.5C624.4 8.8 661.2-7.2 695.8 3l-.5 40L712 10c28.2 16.1 42.7 48.7 35.7 80.5h.1c-.1.5-.3 1-.4 1.6-.2 1-.5 2-.8 2.9-.3 1.2-.8 2.5-1.2 3.7-.3.9-.6 1.8-1 2.8-.5 1.3-1.1 2.6-1.7 3.9-.3.8-.6 1.5-1 2.3-1 1.9-2 3.8-3.1 5.6-.4.6-.8 1.3-1.2 1.9-.8 1.2-1.6 2.5-2.5 3.6-.5.7-1.1 1.4-1.7 2.2-.8 1-1.7 2.1-2.5 3.1-.6.7-1.2 1.4-1.9 2.1-.9 1-1.9 1.9-2.8 2.8-.7.6-1.3 1.2-2 1.8-1.1 1-2.2 1.9-3.4 2.8-.6.5-1.2.9-1.8 1.4-1.8 1.3-3.6 2.5-5.5 3.7-.3.2-.7.4-1.1.6-1.6.9-3.2 1.8-4.8 2.6-.7.4-1.4.6-2.2 1-1.3.6-2.7 1.2-4.1 1.7-.8.3-1.6.6-2.5.9-1.4.5-2.8.9-4.2 1.3-.8.2-1.7.5-2.5.7-1.5.4-3.1.7-4.7.9l-.3.1c1 18.5 2 36.9 2.8 55.4 18-37.1 62.7-52.5 99.8-34.4 1.3.6 2.6 1.3 3.9 2l-13.1 36.2 27.2-26.1c14.6 13.3 23.2 31.9 24.1 51.6.3 6.9-.3 13.8-1.9 20.5-9.4 40.1-49.6 65.1-89.7 55.7-20.1-4.7-37.3-17.5-47.6-35.3 0 1.9.1 3.8.2 5.6.5 19.4 1.1 43.5-8.5 65.1-6.5 14.6-17.1 26.5-27.5 37.1-6.8 6.9-13.8 13.6-21 20.1-7.1 9.5-16.4 17.2-27 22.4-11.8 9.1-24.1 17.7-36.7 25.6l-7.9 4.9c-7.1 4.4-14.4 8.9-21.5 13.6 1.3-.1 2.5-.3 3.8-.3 32.5-1.5 62.2 18.1 73.5 48.6l-46.7 38 51.3-11.9c-.1 41.3-33.6 74.7-74.8 74.6-11.2 0-22.2-2.5-32.2-7.4 1.2 1.4 2.3 2.9 3.5 4.3 2.3 2.8 4.6 5.7 6.8 8.5 30.4 38.5 38.8 75 23.8 102.8l-18.3-9.9c14.6-27.1-7.4-61.8-21.8-80-2.2-2.8-4.4-5.6-6.7-8.4-19.4-24.1-41.4-51.4-40.8-84.9.7-50.7 49.8-81.1 89.2-105.5z"/><path class="st2" d="M878.7 188.2v350.6c0 4-3.2 7.2-7.2 7.2H156.9c-4 0-7.2-3.2-7.2-7.2V188.2c0-4 3.2-7.2 7.2-7.2h714.6c3.9 0 7.2 3.2 7.2 7.2z"/><path class="st3" d="M878.7 185.8V202h-729v-16.2c0-2.7 2.2-4.8 4.8-4.8h719.4c2.6 0 4.8 2.2 4.8 4.8z"/><circle class="st4" cx="165.7" cy="191" r="5"/><circle class="st4" cx="179.7" cy="191" r="5"/><circle class="st4" cx="193.7" cy="191" r="5"/><path class="st5" d="M761.5 437v60.2l-495.2.3-.5-120.3c5.2 15.4 18.1 18.2 40.9-9 55.5-66.3 131.1-83.8 189.5-85.6 40-1.3 79.9 7 118 23.4 15.8 6.8 78.3 14.2 119.6 17.5 15.5 1.2 27.5 14.2 27.5 29.7l.2 83.8z"/><path class="st5" d="M761.5 378.1v119.6H265.8v-26c14.2-3.6 67.2-17.3 92.6-55.2 30.4-45.4 71.7-57.3 103.7-58.6 21.9-.9 43.7 4.8 64.5 16 23.4 12.6 68.6 27.9 102.9-16.4 37.9-49 96.2-8.6 111 6.2 5.3 5.3 21 14.4 21 14.4z"/><path fill="none" stroke="#6c63ff" stroke-width="2" stroke-miterlimit="10" d="M265.8 251.3v244.5h495.7"/><path class="st7" d="M328.3 495.8v-149M388.4 495.8V306.9M448.6 495.8V287.9M508.8 495.8V282M568.9 495.8V288.6M629.1 495.8v-183M689.2 495.8V325.2"/><circle class="st4" cx="328" cy="344.8" r="11.1"/><circle class="st4" cx="388.1" cy="306.9" r="11.1"/><circle class="st4" cx="448.3" cy="288.6" r="11.1"/><circle transform="rotate(-80.781 508.426 282.012)" class="st4" cx="508.4" cy="282" r="11.1"/><circle class="st4" cx="568.6" cy="288.6" r="11.1"/><circle class="st4" cx="628.7" cy="313.4" r="11.1"/><circle class="st4" cx="688.9" cy="326.5" r="11.1"/><ellipse class="st0" cx="514" cy="718" rx="514" ry="21"/><linearGradient id="SVGID_1_" gradientUnits="userSpaceOnUse" x1="626.021" y1="-71.783" x2="626.021" y2="398.322" gradientTransform="rotate(180 375.5 329.75)"><stop offset="0" stop-color="gray" stop-opacity=".25"/><stop offset=".54" stop-color="gray" stop-opacity=".12"/><stop offset="1" stop-color="gray" stop-opacity=".1"/></linearGradient><path d="M57.5 352.7c0 .9-.3 1.7-.8 2.4 4-.1 7.6-2.8 11.2-4-.7 3.9 0 8.5.5 11.8.5 3.2 1.3 6.3 2.4 9.4 2.5 10.9 7.1 21.6 11.3 32 1.8 4.1 3.1 8.5 4 12.9 2.8 16.9-6.9 33.1-8.8 50.1-.1.9-.1 1.9 0 2.8-.2.2-.3.4-.4.6-6.8 10.4-5.9 27.9-4.7 40.2s5.1 24.2 8.8 36.1c1.1 3.3 2 6.6 2.6 10 .6 4.6.7 9.3.3 14-1.2 21.7-4.3 43.6-.7 65 2.6 15.6 8.4 29.8 9 45.6.5-1.2 1.2-2.2 2.2-3l1.1 41.5c-.1.8.2 1.6.8 2.1.8.5 1.8 0 2.7-.1 2.6-.3 4.3 2.5 6.1 4.5 2.6 3 6.7 4.4 10.6 4.7 4 .1 8-.2 11.9-1.1 1.8-.3 3.8-.7 5.1-2 1.4-1.4 2.1-3.5 1.7-5.5-.8-6.1-7.4-9.6-10.7-14.8-3.9-6.2-3-14.4-6.8-20.6-1.3-2.1-3.1-3.9-4.3-6.1-.6-1.4-1.1-2.8-1.4-4.2 1.2.4 2.3.9 3.3 1.6-.4-3.2-.7-6.5-1.1-9.7l-.2-1.4c-.5-4.4-1-8.8-1.4-13.2-1.2-14.5 2.9-28.7 0-42.9-.6-3 .4-6.1 1.2-9.1 5.1-16.8 8.1-34.1 9.2-51.7.4-6.2.4-12.1 2.3-18 2.3 9.5 9.5 16.9 14 25.6 2.8 5.4 4.5 11.3 7.5 16.6 1.5 2.6 3.2 5 4.2 7.8 1.4 4.3.7 9.1 0 13.6-3.2 23.5-2.9 47.4-1.8 71.1-1 9.1-3.1 18-6.2 26.5-1.2 3.4-2.6 7.3-.7 10.4.8 1.1 1.8 2.1 3 2.8 2.8 2 5.8 3.8 8.9 5.4.9.6 2 .9 3.1.7.7-.2 1.3-.6 1.9-1 2.4-1.5 5.6-1.2 8.2-.3s5.1 2.5 7.7 3.6c5.5 2.3 11.5 2.8 17.3 1.2 2.4-.7 5-2 5.8-4.3s-.6-4.9-2.5-6.4-4.3-2.4-6.5-3.5c-4.8-2.5-8.7-6.4-11.2-11.2-1.5-3.2-2.7-6.5-3.5-9.9-1.2-4.1-2.3-8.2-3.5-12.2.7.4 1.3.9 1.9 1.4 1.6-20.2 3.3-40.5 7.6-60.3 2.1-9.5 4.8-19.1 3.7-28.7-.5-5.1-2.1-10-3.6-14.8-4.7-15.2-8.8-30.5-12.3-46.1 1.3-1.5 2.3-3.2 3-5 1.1-3.4 1.7-7 1.8-10.6 1.7-24.3 1.6-48.7-.2-73-.5-6.2-1.2-12.6-3.6-18.2h1.4c-1.7 0-4.4-16.8-4.8-18.6-1.1-6.5-1.9-13-3.1-19.5-.6-3.1-1.2-6.3-2-9.4-.5-2.1-2.7-14.9-4.4-16.3-.2-.2-.4-.3-.6-.4-.9-2.9-2.8-5.3-5.3-6.9-2.8-1.6-6.1-1.6-9.3-1.4-.9-1.3-1.8-2.6-2.7-4-1.7-2.2-3-4.6-3.8-7.2-.3-1.1-.4-2.2-.5-3.3 0-.8-.1-1.5-.1-2.2v-1.1c0-.7-.1-1.5-.2-2.2-.1-.6-.2-1.2-.4-1.8-.1-.2-.2-.5-.2-.8-.5-1.5-1-3-1.4-4.5-1.2-4.9-.6-10.1-.4-15.1s-.1-10.4-3-14.6c-2.1-3.1-5.4-5.5-6.6-9-.5-1.7-.5-3.5-1.3-5.1-1-1.8-2.6-3.1-4.6-3.8-2.3-1-6.8-2.3-9.2-1.1-.5.2-.9.5-1.2.9-2.6.1-5.2.5-7.4-.6-1.7-.9-3-2.5-4.7-3.5-4-2.2-9.1 0-12.7 2.9-5.7 4.6-9.8 10.9-11.9 17.9-1.6 5.4-2.2 11.7-6.8 15.1-1.9 1.4-4.3 2.2-5.7 4.1-.9 1.5-1.4 3.3-1.5 5.1-.5 4.1-.9 8.3.2 12.3.8 3 2.4 5.7 3.4 8.6 2.7 8.4.3 17.7-6.3 23.7 2.3.8 4.2 1.1 6.1.7zM153.7 474c2.8-1.5 4.7-4.1 5.4-7.2l.3 1.2c1.3 5.2 1 10.7-.8 15.8-1.3-3.4-2.9-6.7-4.9-9.8zm2-22.1c-1.7-2.4-3.1-4.9-4.2-7.6-1.5-4.3-1.2-9-.8-13.6.2-3.5.7-7 1.4-10.4.5 10.6 1.7 21.2 3.6 31.6z" fill="url(#SVGID_1_)"/><path class="st2" d="M117 269.1c1.9.7 3.5 2 4.5 3.8.8 1.6.7 3.4 1.3 5.1 1.1 3.5 4.4 5.9 6.4 9 2.8 4.2 3.1 9.5 2.9 14.5s-.8 10.1.4 15c.6 2.4 1.6 4.6 2 7 .5 2.9.1 6 .8 8.9.8 2.6 2.1 5 3.7 7.1l6.5 9.5c-2.9-.7-5.8-1.6-8.6-2.6.9 2.7 2.5 5.1 4.6 7l-4.7-5.7c-1-1.3-2.1-2.4-3.5-3.3-1.7-1-3.8-1.1-5.7-1.5-3.7-.8-7.5-2.7-9.3-6-2.4-4.5-.9-10.1-2.2-15-1-3.6-3.5-6.5-5.2-9.8-3.8-7.5-3.6-16.3-4.8-24.6-.5-3.5-1.3-7-1.3-10.6 0-2.6.3-7.6 3-9 2.5-1.1 7 .2 9.2 1.2z"/><path class="st9" d="M169.4 663.7l5 17.8c.8 3.4 2 6.7 3.5 9.8 2.4 4.8 6.3 8.6 11 11.2 2.1 1.1 4.5 2 6.4 3.5s3.2 4.1 2.5 6.4-3.3 3.6-5.6 4.3c-5.6 1.5-11.6 1.1-17-1.2-2.5-1.1-4.9-2.7-7.6-3.6s-5.7-1.2-8.1.3c-.6.4-1.2.8-1.9 1-1.1.1-2.2-.1-3.1-.7-3.1-1.6-6-3.4-8.8-5.4-1.1-.7-2.1-1.7-2.9-2.8-1.9-3-.6-7 .6-10.3 3.2-8.9 5.3-18.1 6.2-27.5 0-.8.3-1.7.9-2.2.4-.2.9-.3 1.4-.3l21.4-1M114.1 681.5c1.1 2.2 2.9 4 4.2 6.1 3.8 6.2 2.9 14.4 6.7 20.5 3.2 5.2 9.7 8.7 10.5 14.7.3 2-.3 4-1.7 5.5-1.4 1.2-3.3 1.6-5.1 1.9-3.8.9-7.8 1.2-11.7 1.1-3.9-.3-7.9-1.8-10.5-4.7-1.7-2-3.4-4.8-6-4.5-.9.1-1.9.6-2.6.1-.6-.5-.9-1.3-.8-2.1L96 674.7c3.8-.4 10.3-1.9 14-.6 3.2 1.1 2.7 4.6 4.1 7.4z"/><path class="st10" d="M151.4 471.3c9.2 11.5 11.9 26.7 14.9 41.1 3.8 18.6 8.5 37 14.1 55.2 1.5 4.8 3 9.7 3.6 14.7 1 9.6-1.6 19.1-3.7 28.5-4.2 19.7-5.9 39.8-7.5 59.9-6.6-5.6-16.1-6.1-23.2-1.2-1.1-24.2-1.6-48.7 1.7-72.7.6-4.5 1.4-9.2 0-13.5-.9-2.8-2.7-5.2-4.1-7.7-3-5.2-4.7-11.1-7.4-16.5-4.4-8.6-11.4-16-13.7-25.4-1.9 5.8-1.9 11.8-2.3 17.9-1 17.4-4 34.7-9 51.4-.9 2.9-1.8 6-1.2 9 2.8 14.2-1.2 28.3 0 42.7.4 4.4.9 8.7 1.3 13.1l.2 1.4 1.1 9.7c-4-2.7-8.2-2.3-13.1-2.1-1.6 0-3.2.3-4.8.8-2 .8-3.5 2.3-4.3 4.3-.6-15.7-6.2-29.8-8.8-45.3-3.6-21.3-.6-43.1.7-64.7.4-4.6.3-9.3-.3-14-.6-3.4-1.4-6.7-2.5-10-3.6-11.8-7.5-23.6-8.7-35.9s-2.1-29.6 4.6-40c2.1-3.2 7.1-1.8 10.3-3.8 2.5-1.6 5.3-2.7 8.2-3.4 17.5-4 36.1 5 53.9 6.5z"/><path class="st11" d="M119.9 329c.4 4.4 1.3 9.5 5.3 11.4 2.3 1 4.9.6 7.3 1 4.6.8 8.4 4.3 10.6 8.5s2.9 8.9 3.4 13.5c.6 5.8.8 12.1-2.4 17.1-2.6 4-7 6.4-11.6 7.6-9.3 2.4-19.3.6-27.1-5-3.7-2.9-7.1-6.2-10-9.9-6.6-7.7-13.3-16.2-14.7-26.3-.2-1.1-.1-2.5.8-3.2.6-.4 1.4-.5 2.1-.4l6.4.1c1.6 0 3.4 0 4.5-1.2s1-2.8 1-4.2l-.5-18.6c-.1-.7.1-1.3.4-1.9.4-.4.9-.6 1.5-.6 3.5-.6 7.2 0 10.6-1 3.3-.9 8.4-4.6 10.8-.8 2 3.4 1.2 10.1 1.6 13.9z"/><path class="st12" d="M119.9 329c.4 4.4 1.3 9.5 5.3 11.4 2.3 1 4.9.6 7.3 1 4.6.8 8.4 4.3 10.6 8.5s2.9 8.9 3.4 13.5c.6 5.8.8 12.1-2.4 17.1-2.6 4-7 6.4-11.6 7.6-9.3 2.4-19.3.6-27.1-5-3.7-2.9-7.1-6.2-10-9.9-6.6-7.7-13.3-16.2-14.7-26.3-.2-1.1-.1-2.5.8-3.2.6-.4 1.4-.5 2.1-.4l6.4.1c1.6 0 3.4 0 4.5-1.2s1-2.8 1-4.2l-.5-18.6c-.1-.7.1-1.3.4-1.9.4-.4.9-.6 1.5-.6 3.5-.6 7.2 0 10.6-1 3.3-.9 8.4-4.6 10.8-.8 2 3.4 1.2 10.1 1.6 13.9z"/><circle class="st11" cx="103.8" cy="303.4" r="24.3"/><path class="st13" d="M130 371.1c3.9.1 8.4-1 10.3-4.5 1.3-2.4 1.1-5.2.8-7.9l-1.4-15c3.8-.4 7.9-.7 11.3 1.1 4.4 2.5 6 8.1 6.5 13.1.9 9.5-.6 19.1-.1 28.6.4 8 2.3 16.3-.1 23.9-1 3.2-2.7 6.1-3.7 9.3-1.4 4-1.7 8.3-2 12.5-.4 4.5-.7 9.2.8 13.5 1.3 3.6 3.8 6.6 5.5 10 2.9 5.6 3.5 13.1-.8 17.6-4 4.1-10.6 4.3-16.2 3s-11-3.8-16.7-4c-10.1-.4-19.1 6.1-29 8.3-1.3.4-2.7.4-4.1.1-1.2-.4-2.3-1-3.3-1.8l-5.4-3.9c-1.1-.6-2-1.6-2.6-2.7-.5-1.2-.6-2.5-.3-3.8 1.8-16.9 11.4-33.1 8.6-49.8-.9-4.4-2.2-8.7-3.9-12.8-6.9-17.6-15.1-35.8-12.4-54.5.6-4.1 1.8-8.4 4.6-11.4s7.7-4.6 11.4-2.6 5 6.3 6.6 10.1c3.1 7.4 8.1 13.8 14.5 18.7 2.7 2.1 5.9 4.7 9.4 4.8 3.7.3 7.7 0 11.7.1z"/><path class="st11" d="M165.2 408.9c5.9 6.5 7.1 16 7.7 24.8 1.8 24.2 1.9 48.4.2 72.6-.1 3.6-.7 7.1-1.8 10.5-1.3 3.3-3.6 6.5-6.9 7.8-2.1.9-5.1.6-6.1-1.5-.9-1.9.4-4 1.4-5.9 2.3-4.3 3-9.2 2.2-13.9-1.2.9-1.6 2.5-2 3.9l-1.9 8.1c-2.6-.4-3.6-3.6-4-6.2-.8-4.7-1.5-9.8.4-14.1 1-2.3 2.7-4.3 3.7-6.7 2.6-5.9 3.6-12.6 1.9-18.8-5.5-20.9-7.9-42.6-7.2-64.2 3.8 2.2 8.1 3.4 12.4 3.6z"/><path class="st13" d="M170.8 415.5c-7.3.1-14.5 1-21.5 2.8-.9-4.6-.5-9.3 0-14l3.1-32c.2-2.4-.2-24.1 4.4-20.3 1.7 1.4 3.8 14.1 4.4 16.2.8 3.1 1.4 6.2 2 9.3 1.1 6.4 1.9 12.9 3 19.4.2 2 2.9 18.6 4.6 18.6z"/><path class="st2" d="M113.1 272.5c0-.8-.1-1.5-.5-2.2-.6-.8-1.6-1.3-2.6-1.4-3.5-.5-7.4.9-10.5-.7-1.7-.9-2.9-2.5-4.6-3.5-4-2.2-9 0-12.4 2.9-5.6 4.6-9.6 10.8-11.7 17.8-1.6 5.4-2.2 11.7-6.6 15.1-1.9 1.4-4.2 2.2-5.6 4.1-.9 1.5-1.4 3.2-1.5 5-.5 4.1-.9 8.3.2 12.2.8 3 2.4 5.6 3.4 8.5 2.7 8.4.3 17.6-6.2 23.6 1.6 1 3.6 1.4 5.4.9 0 .9-.3 1.7-.8 2.4 5.7-.2 10.6-5.7 16.2-4.5 4.3.9 6.6 5.3 9.8 8.3 4.1 3.8 10.4 5.5 15.6 3.2s8.2-8.8 6.1-13.9c-2.5-5.9-10.1-8.2-12.8-14-2.1-4.5-.5-9.8-1-14.7-.4-4.2-2.2-8.2-3.3-12.3s-1.5-8.8.8-12.3c2.5-3.8 7.2-5.3 11.5-6.7 9.6-3.1 11.5-8 11.1-17.8z"/><path class="st11" d="M107.1 360c.7-3.4 1.4-7 .1-10.3-2.3-6-9.7-7.9-14.9-11.8-3-2.3-5.3-5.3-6.6-8.8-.9-2.5-1.1-5.8 1.2-7.1.9-.4 1.9-.6 2.9-.5 8 .2 15.4 4.5 21.5 9.7 3.6 3 7 6.4 8.8 10.8 1.1 3.1 1.8 6.4 2 9.7l1.3 10.9c.8 6.3 1.3 12.5 1.5 18.9 0 3.6-.2 7.2-.7 10.8-.3 2.5-.8 5.2-2.3 7.2-2.8 3.9-8.1 4.8-12.9 4.9-1.8.1-3.6 0-5.4-.3-7.9-1.7-13.9-12.8-7.9-19.7 2.6-2.9 6.4-3 7.8-7 2-5.5 2.5-11.9 3.6-17.4z"/><path class="st13" d="M100.7 361.9l6.3 10.2c.4.5.6 1.1.8 1.8.2 1.3-.8 2.5-1.6 3.6-5.4 7.4-4 17.5-2.4 26.5-17.6-5.6-30.4-20.7-33.1-38.9-.8-5.4-2.1-14.2 2.7-17.6 11.4-8.5 21.9 5.6 27.3 14.4z"/><path class="st2" d="M132.5 341.4c-2.4-.4-5.1 0-7.3-1-4-1.8-4.9-7-5.3-11.4 0-.4-.1-.9-.1-1.3 1.4-1.5 3-2.8 4.6-4 1.5-.9 3.1-1.6 4.7-2.1l4.4-1.5c.4 1.2.8 2.4 1 3.6.5 2.9.1 6 .8 8.9.8 2.6 2.1 5 3.7 7.1l6.5 9.5c-1.2-.3-2.4-.6-3.5-.9-2.1-3.5-5.5-6.3-9.5-6.9z"/><linearGradient id="SVGID_2_" gradientUnits="userSpaceOnUse" x1="978.456" y1="-66.548" x2="978.456" y2="424.456" gradientTransform="matrix(1 0 0 -1 -86 659.5)"><stop offset="0" stop-color="gray" stop-opacity=".25"/><stop offset=".54" stop-color="gray" stop-opacity=".12"/><stop offset="1" stop-color="gray" stop-opacity=".1"/></linearGradient><path d="M1015 383.5c-1.2-5.6-3.3-11-4.6-16.6-.5-2.9-1.3-5.8-2.2-8.6-.5-1.2-1-2.4-1.7-3.5l.6-.6c-2.1-3.5-2.1-7.8-3.1-11.8-.8-3.4-2.5-6.5-3.5-9.9-1.4-4.7-1.6-9.9-4.5-13.8-1.1-1.5-2.6-2.7-3.9-4.1-1.5-1.6-2.6-3.5-4.1-5.1-4.3-4.6-10.8-6-16.9-6.7s-12.5-.6-18.1-3.2c-2.4-1.1-4.9-2.6-7.3-2.4-1.4-1.3-2.7-2.8-3.8-4.4-1.9-2.3-3.6-4.7-5.1-7.2 1.2-2 2.1-4.2 2.7-6.4l.4-.3c1.6-1.2 3-2.8 4.6-4 1.4-1 3.2-2 3.3-3.8s-1.5-3.1-2.5-4.6c-3.6-5.3.4-13.5-3.3-18.7-1.8-2.6-5.1-3.6-8-4.9-4-1.8-7.6-4.3-11.5-6s-8.6-2.6-12.6-1c-7.5 3.1-10.2 13.8-17.8 16.5-.8.2-1.6.6-2.1 1.2-.9 1.5-2.2 10.5-1.9 12.3.3 2.5.9 3.7 2.6 4.5v1.6c0 12.7 8.8 23.3 20.5 25.5 1.1 1.2 2.1 2.5 2.8 3.9.6 1.5.9 3.1 1 4.8-.4-.2-.9-.3-1.3-.3-1.5.2-2.8 1.3-3.2 2.8-.4 1.5-.6 3-.5 4.5.1 1-.2 1.9-.9 2.6-.4.2-.8.4-1.2.4-1.5.3-3.1.4-4.7.5-2.6 0-5.4-.6-7.7.6s-3.3 4-4.4 6.5c-1.6 3.5-3.7 6.8-6.2 9.8-2.8 3.2-6.3 6.3-7.1 10.6v.3c-2.2 1-4.4 3.4-6 4.6-3 2.3-5.9 4.8-8.7 7.4-2.8 2.7-6.6 6.1-8.3 9.7-.9 1.5-2.1 2.9-3.5 4-2.8 1.9-6.5.9-9.7-.2-8.9-2.9-17.8-5.8-26.2-10.2-.4-.3-.9-.4-1.4-.4-.3.1-.5.2-.7.5-.1-.1-.1-.2-.2-.3-2.2-2.4-5.8-2.6-7-6.3-.3-1.2-.6-2.4-.7-3.6-.8-3.5-2.1-6.9-3.8-10.1-.3-.7-.7-1.2-1.2-1.7-1.1-.5-2.4-.1-3 1-.6 1-.8 2.2-.6 3.4.1 1.3.3 2.8-.6 3.7-.4.3-.8.6-1.3.7-2.9.9-6.1.1-8.8-1.3s-5.1-3.4-7.8-4.9c-1.4-.8-2.9-1.5-4.4-2.1-1.5-.6-3.7-1.1-4.5.4-.7 1.2 0 2.7.8 3.8 1.3 1.9 2.9 3.7 4.7 5.3 5.2 4.6 11.8 7.2 17.8 10.5 5.3 2.8 10.3 6.2 15 10-.2.6-.3 1.2-.3 1.8 0 2.4 1 4.7 2.8 6.3 1.7 1.5 3.7 2.8 5.8 3.8 10.6 5.5 21.3 10.9 32 16.1.7.4 1.4.6 2.2.7 2.2 0 3.6-2.3 5.3-3.7s4-1.7 6.1-2.5c3.8-1.3 7-3.7 10.2-6.2L882 377c5.2-3.9 10.4-8 14.8-12.8.5 1.1 1.3 2.2 2.3 3-.8 1.9.9 3.8 1.3 5.8.1 1.3.2 2.7.1 4 .2 1.9.5 3.9 1 5.8.5 3.1.7 6.2.7 9.4 0 3.5.1 7 .2 10.5.1 4.5.1 9.1-.8 13.5-1.3 6-4.5 11.7-4.2 17.9.2 1.1.1 2.3-.3 3.4-2.6 5-4.7 10.5-7.5 15.4-.8 1.2-1.5 2.5-2 3.9-.3 1.4-.2 2.9.4 4.3-1.1 2-1.7 4.2-1.8 6.5-.2 5.7 2.1 11 3.2 16.6 1 5.1 1 10.3 1.2 15.6.8 24.4 5.5 48.5 6.5 72.8.5 11.2.1 22.5-1 33.7-.7 7.2-1.8 14.4-2.2 21.7-1.2 20.6 3.2 41 7.4 61.2 1.3-1.5 3.1-2.5 5.1-2.8-.5 2-1.2 4.6-1.9 6.5-1 .1-2 .5-2.9 1.1-2.5 1.6-3.3 4.8-4.8 7.5-3.2 5.8-9.4 8.7-14.5 12.7-2.5 1.9-4.9 4.8-4.2 7.8 8.8 2.6 18.5 4.8 27 1.3 3.5-1.4 6.7-3.8 10.4-3.9 2.8-.1 5.7 1.1 8.4.3.7-.2 1.3-.6 1.7-1.2.3-.6.5-1.3.4-2 .2-4.7.2-9.4-.1-14.1-.2-4 .2-7-3.1-7.6-.8-2-1.4-4.1-1.8-6.2 0-.4-.1-.8-.1-1.2.9 0 1.8-.1 2.7-.2.5-.1 1.1-.2 1.6-.4-.2-.7-.3-1.4-.5-2.1-.3-1.4-.5-2.8-.7-4.2s-.3-2.8-.4-4.2c0-.7-.1-1.4-.1-2.1-.1-1.4-.1-2.8-.1-4.2s0-2.8.1-4.2.1-2.8.2-4.3c.2-3.5.6-7.1.9-10.6 1-10.3 2-20.7 3.1-31 .3-3.1.6-6.2.7-9.3 0-1.9 0-3.7-.3-5.6-.5-4.5-1.9-9-2-13.4 0-.7 0-1.5.1-2.2.1-.7.2-1.5.4-2.2l.3-1.2c.2-.8.5-1.6.8-2.3.1-.4.2-.8.4-1.2.4-1.7.7-3.4.7-5.2 0-.6.1-1.2.1-1.7l1.2-24.4c.2-3.9.5-8.1 2.1-11.6.7-1.5 1.6-2.9 2.8-4.1-.3-.8 0-2.2.9-2.5 1 12.4.9 25-.4 37.4-.4 3.9-1.1 7.8-1.3 11.7-.4 8.6 1.5 17.2 2.2 25.8s0 17.5 0 26.2c-.1 15 1.6 30 3.2 45l1 .7c0 1.3.2 2.8.1 4 0 .4 0 .9.1 1.3h-.4c-2 .2-3.7 1.3-4.7 3s-1.7 3.6-2.1 5.5c-.5 1.4-.7 2.9-.6 4.4.4 2.8 2.8 5 3.4 7.8 1.2 5.1-3.8 10.5-1.5 15.2 1.4 3 5.1 3.8 8.2 4.3 4.8.8 10.3 1.4 14.2-1.8 2.1-1.8 3.3-4.5 3.2-7.2 0-3.7-2.2-6.9-3.1-10.4-1.3-4.9.7-11.6-1.4-16.1-.2-.5-.4-.9-.8-1.3h.7c-.2-1.7-.3-3.3-.5-5l1.7-.9c1.7-.9 3.7-1.5 5.5-.8-.7-8.6-.9-18.1 1.1-26.4 1.5-6.6 4.3-12.9 5.6-19.5 1-5.5 1.1-11.1 1.1-16.7 0-10.4 0-20.8-1.7-31-.7-4.1-1.7-8.3-.9-12.3.5-2.7 1.7-5.2 2.4-7.8 1.7-6.2.4-12.8 1.4-19.1 2.4-15.1 3.6-30.9 5.4-46.1.9-8.6 1.2-17.3.9-25.9v-.1l3.6-7c2.6-5 5.2-10.1 6.7-15.5.5.8 1 1.6 1.3 2.5l15.8-26.2c1-1.6 1.8-3.2 2.4-5 .4-1.3.5-2.6.8-3.9.7-3.4 2.4-6.4 3.8-9.5 3.7-9.2 4.7-19.2 2.7-28.8zm-23.6 13.2c-.7 4.3-1.7 8.6-3 12.8-2.1 7.2-4.5 14.2-6.9 21.3l-2.1 6c-.7 2.4-1.8 4.7-3.2 6.8-.3.5-.6 1.1-.8 1.6-2.1-8 .2-17-.3-25.5-.4-6.5-2.4-13-.9-19.2 1-4.2 3.5-7.8 5.3-11.8 1.7-3.7 2.7-7.6 4.5-11.2 0 .1 0 .1.1.2 1.7 4.3 3.6 8.6 5.9 12.6.6.9 1.1 1.9 1.4 3 .3 1.1.3 2.2 0 3.4z" fill="url(#SVGID_2_)"/><path class="st15" d="M805.7 353.4c-.4-1.2-.6-2.4-.8-3.6-.7-3.6-2.3-6.9-3.9-10.2-.3-.7-.7-1.2-1.3-1.7-1.1-.5-2.4-.1-3.1 1-.6 1-.8 2.3-.7 3.4.1 1.3.3 2.8-.6 3.8-.4.3-.8.6-1.3.7-3 1-6.3.1-9.2-1.3s-5.3-3.4-8.1-4.9c-1.5-.8-3-1.5-4.5-2.1-1.6-.6-3.8-1.1-4.7.4-.7 1.2 0 2.7.8 3.8 1.4 2 3 3.7 4.9 5.3 5.4 4.7 12.3 7.3 18.6 10.5 7.1 3.6 13.8 8.2 19.8 13.5.6-.7.9-1.5 1-2.5.5-2.5 2.6-7.7.5-9.9-2.5-2.4-6.1-2.5-7.4-6.2z"/><path class="st10" d="M906 696.8c5.3 4.2 12.1 6.1 18.8 5.3 1.4-.2 3-.7 3.5-2 .2-.8.1-1.6-.3-2.4-1.1-2.5-1.9-5.1-2.4-7.8-.3-2.4-.3-5.3-2.2-6.8-2.9-2.1-10.3-2-12.2 1.3-.5.6-3.3 14-5.2 12.4zM946.3 685c-.3 1 .3 2.1 1.4 2.3h.3c4.6 1.4 9.4 2.2 14.2 2.4l-1-9.6c.1-.8-.5-1.5-1.4-1.6h-.2c-2.8-.5-8.6-2.3-11.2-1.4-3.1 1.1-2.1 5-2.1 7.9z"/><path class="st15" d="M918.4 301.2c.8 2 1.2 4.2 1.1 6.3.2 7.8-1.1 16.1-6.5 21.7 6.1-1.8 12.9-.7 18.6-3.4 2.7-1.2 4.9-3.2 7.4-4.8 4.4-2.8 9.6-4.1 14.2-6.6s8.9-6.6 9.1-11.8c-2-2.1-5.2-2.4-7.8-3.7-2.8-1.4-4.9-3.9-6.9-6.3-2.3-2.7-4.4-5.6-6.1-8.7-1.7-3.1-2.4-6.7-2-10.3-5.1.9-8.8 5.4-13.7 7.3-1.9.7-3.9 1.1-5.7 1.9-2.6 1.2-7.9 5.3-8 8.5-.1 3.6 4.9 6.9 6.3 9.9z"/><path class="st12" d="M918.4 301.2c.8 2 1.2 4.2 1.1 6.3.2 7.8-1.1 16.1-6.5 21.7 6.1-1.8 12.9-.7 18.6-3.4 2.7-1.2 4.9-3.2 7.4-4.8 4.4-2.8 9.6-4.1 14.2-6.6s8.9-6.6 9.1-11.8c-2-2.1-5.2-2.4-7.8-3.7-2.8-1.4-4.9-3.9-6.9-6.3-2.3-2.7-4.4-5.6-6.1-8.7-1.7-3.1-2.4-6.7-2-10.3-5.1.9-8.8 5.4-13.7 7.3-1.9.7-3.9 1.1-5.7 1.9-2.6 1.2-7.9 5.3-8 8.5-.1 3.6 4.9 6.9 6.3 9.9z"/><path class="st9" d="M984.2 503.2c-1.9 15.2-3.2 31.1-5.7 46.2-1 6.3.2 13-1.5 19.2-.8 2.7-2 5.1-2.6 7.8-.8 4.1.2 8.3 1 12.4 1.8 10.2 1.8 20.7 1.8 31.2 0 5.6 0 11.3-1.1 16.8-1.3 6.7-4.2 13-5.8 19.6-2.1 8.4-1.9 17.9-1.2 26.5-1.9-.7-4 0-5.8.8s-3.6 2-5.6 2.1c-2.7.2-5.2-1.2-7.5-2.5-1.8-1-3.3-2-5.1-3.1-1.7-15-3.5-30.1-3.4-45.2 0-8.8.7-17.6 0-26.3s-2.7-17.2-2.3-25.9c.2-3.9.9-7.8 1.3-11.7 1.5-12.7 1.3-24.8.4-37.5-.9.2-1.2 1.6-.9 2.5-1.3 1.2-2.3 2.5-3 4.1-1.6 3.5-1.9 7.7-2.2 11.7l-1.3 24.5c0 2.3-.3 4.6-.9 6.9-.5 1.6-1.1 3.1-1.5 4.8-1.5 5.9.9 11.9 1.6 17.9.6 5 .1 10-.4 14.9l-3.2 31.1c-1.2 11.3-2.3 22.9 0 34 .2.7.3 1.4.5 2.1-.6.2-1.1.3-1.7.4-2 .3-4 .3-6 0-1.9-.2-3.7-.5-5.6-.7-4.4-.5-8.8-.7-11.8 2.7-4.5-20.2-8.9-40.8-7.8-61.4.4-7.3 1.5-14.5 2.3-21.8 1.2-11.2 1.6-22.5 1.1-33.8-1-24.5-6-48.7-6.8-73.1-.2-5.2-.2-10.5-1.2-15.6-1.1-5.5-3.5-11-3.3-16.6s4.3-11.9 10-11.6c15.7.9 30.1-7.8 45.8-9.3 7.1-.7 14.4-1.7 21.4-.4s14.1 5.3 16.8 11.9c1.5 3.6 1.6 7.6 1.7 11.5.5 10.8.8 21.9-.5 32.9z"/><path class="st3" d="M905.1 695.2c-2.6 1.6-3.5 4.9-5 7.5-3.3 5.8-9.8 8.7-15.2 12.7-2.6 1.9-5.1 4.8-4.3 7.9 9.2 2.6 19.3 4.9 28.2 1.3 3.6-1.4 7-3.8 10.9-3.9 3-.1 6 1.2 8.8.3.7-.2 1.3-.6 1.7-1.2.3-.6.5-1.3.5-2 .2-4.7.2-9.5-.1-14.2-.3-4.6.3-7.9-4.9-7.7-6 .3-15.3-4-20.6-.7zM949.4 687c-1.1-.4-2.2-.7-3.4-.8-2 .2-3.8 1.3-4.9 3-1 1.7-1.8 3.6-2.2 5.5-.5 1.4-.7 2.9-.6 4.5.4 2.9 2.9 5 3.6 7.8 1.2 5.1-4 10.6-1.6 15.3 1.5 3 5.3 3.8 8.6 4.4 5.1.8 10.8 1.4 14.8-1.8 2.2-1.8 3.4-4.4 3.4-7.2-.1-3.7-2.3-7-3.3-10.5-1.4-5 .7-11.6-1.5-16.2-2-4-8.9-2.7-12.9-4z"/><circle class="st15" cx="920" cy="271.7" r="26"/><path class="st10" d="M933.8 314.3c-2.8-1.2-5.9-1.4-8.9-.7l-2.4-4.1c-1-1.8-2.5-3.9-4.6-3.8-1.6.2-2.8 1.3-3.3 2.8-.4 1.5-.6 3-.5 4.5.1 1-.2 1.9-.9 2.6-.4.2-.8.3-1.3.4-1.6.3-3.3.4-4.9.5-2.7 0-5.6-.7-8 .6s-3.5 4-4.6 6.5c-1.7 3.6-3.9 6.9-6.5 9.8-2.9 3.2-6.6 6.3-7.4 10.6-.3 1.8 1.3 3.2 2.6 4.5 5.2 5.2 12.6 8.4 16.5 14.7.9 1.5 1.7 3.1 3 4.1-.9 1.9 1 3.8 1.4 5.9.2 1.3.2 2.7.1 4 .2 2 .5 3.9 1 5.8.5 3.1.7 6.2.7 9.4l.2 10.5c.1 4.5.1 9.1-.8 13.5-1.3 6-4.7 11.8-4.4 17.9.2 1.2.1 2.3-.3 3.4-2.7 5-4.9 10.5-7.8 15.5-.8 1.2-1.5 2.5-2 3.9-.8 2.8.8 5.9 3.2 7.7s5.3 2.5 8.2 3.1c26.9 5.2 54.9-1 80.4-11.2.7-.2 1.3-.5 1.8-1 1.9-1.8.4-4.9-.7-7.2-4-8.8-.8-19-1.4-28.6-.4-6.5-2.5-13-.9-19.3 1-4.2 3.7-7.9 5.5-11.8 2-4.3 3.1-9 5.7-12.9 2-2.7 4.3-5.1 6.8-7.2l16.2-14.5c-2.2-3.5-2.2-7.9-3.2-11.8-.9-3.4-2.6-6.6-3.7-9.9-1.5-4.7-1.7-10-4.7-13.8-1.2-1.5-2.7-2.7-4.1-4.1-1.5-1.6-2.7-3.5-4.3-5.1-4.5-4.6-11.3-6.1-17.7-6.7s-13-.6-18.9-3.2c-2.9-1.2-6-3.1-9-2.2-2.4.7-3.9 3.1-4.9 5.4s-1.7 4.8-3.2 6.7c-1.6 2.2-5.1 3.7-8 4.8z"/><path class="st10" d="M856.5 366.2c-.9 1.6-2.2 2.9-3.6 4-3 1.9-6.8.9-10.2-.2-9.3-2.9-18.6-5.8-27.3-10.2-.4-.3-.9-.4-1.5-.4-.4.1-.8.4-1 .7-1.4 1.5-2.6 3.1-3.8 4.8-1.2 1.6-1.9 3.4-2.2 5.4 0 2.4 1.1 4.7 2.9 6.3 1.8 1.5 3.8 2.8 6 3.8 11.1 5.5 22.2 10.9 33.4 16.1.7.4 1.5.6 2.3.7 2.3 0 3.7-2.3 5.5-3.7s4.2-1.7 6.4-2.5c3.9-1.3 7.3-3.8 10.7-6.2l10.7-7.8c9.4-6.8 19.2-14.2 23.3-25l-13-4.3c-3.9-1.3-8-3.2-12-4-3-.6-6.6 3.4-8.9 5.1-3.2 2.3-6.2 4.9-9.1 7.5-2.8 2.9-6.8 6.3-8.6 9.9z"/><path class="st15" d="M979.6 451.6c-3.7 1.5-7.8-.7-11.7-.1-1.8.4-3.6 1.1-5.1 2.1l-11.4 6.3c-.7.4-1.5 1.3-.8 1.8.2.1.4.2.6.2 3.8.5 7.3-1.8 11.1-2.5 1.7-.2 3.3-.3 5-.2.3 0 .6 0 .8.1.6.3.9.9.8 1.6 0 .6-.2 1.3-.2 1.9.1 1.5.7 2.9 1.7 4 3.6 5.2 7.6 10.1 12 14.7 1.1-1.4 2.1-2.9 2.9-4.5l3.7-7c3.9-7.2 7.8-14.7 8.5-22.9-2.8-.9-8-3.8-10.9-2.3s-3.7 5.7-7 6.8z"/><path class="st2" d="M916.8 267.6c7.3.8 14 4.2 20.5 7.6-1.1 1.8.3 4.3 2.3 4.9s4.2-.2 5.9-1.5 3.1-2.8 4.8-4c1.5-1 3.3-2.1 3.5-3.8s-1.5-3.1-2.6-4.6c-3.8-5.3.4-13.6-3.5-18.8-1.9-2.6-5.3-3.6-8.3-4.9-4.1-1.8-7.9-4.3-12.1-6s-8.9-2.7-13.1-1c-7.8 3.1-10.6 13.8-18.6 16.6-.9.2-1.6.6-2.2 1.3-1 1.5-2.2 10.5-2 12.4.4 3.1 1.2 4.2 4.3 5.1 6.5 1.8 14.1-4.1 21.1-3.3z"/><path class="st10" d="M1011.5 350.5c2.4 2.1 4.2 4.8 5.3 7.7.9 2.8 1.7 5.7 2.3 8.6 1.4 5.6 3.6 11 4.8 16.6 2.1 9.6 1 19.7-3 28.7-1.4 3.1-3.2 6.2-3.9 9.5-.3 1.3-.4 2.6-.8 3.9-.6 1.8-1.5 3.5-2.5 5L997.3 457c-1.3-3.1-3.8-5.5-7-6.6-3.2-1.1-6.5-1.3-9.8-.6 1.2-1.9 1.8-4.1 3-6 .7-1 1.3-2.1 1.9-3.2.6-1.2 1-2.4 1.5-3.7l2.2-6.1c2.5-7.1 5-14.2 7.2-21.4 1.3-4.2 2.4-8.5 3.2-12.8.2-1.1.3-2.2.1-3.4-.3-1.1-.8-2.1-1.5-3.1-2.4-4-4.5-8.3-6.2-12.6-1.3-3-2.6-6.5-1.4-9.6.7-1.6 1.8-3.1 3.2-4.3 5.3-4.9 11.3-9.4 17.8-13.1z"/><path class="st12" d="M928.2 688.4l1.2-2.5c-2.3-11.1-1.2-22.7 0-34l3.2-31.1c.5-5 1-10 .4-14.9-.8-6-3.1-12-1.6-17.9.4-1.6 1.1-3.1 1.5-4.8.5-2.3.8-4.6.9-6.9l1.3-24.5c.2-3.9.5-8.2 2.2-11.7v-.7l-4.1-35.5-10.9 184.3h5.9z"/><path class="st16" d="M834.6 703.7c3-5.5-.4-12.3-4.3-17.2s-8.6-10-8.5-16.3c.2-9 9.7-14.3 17.3-19.1 5.7-3.5 10.9-7.7 15.6-12.5 2-1.8 3.6-4 4.8-6.4 1.6-3.5 1.5-7.5 1.4-11.4-.3-12.8-1-25.7-1.9-38.5"/><path class="st17" d="M873.5 581.6c-.2-4.8-2.9-9.1-7-11.5l-3.1 6.2.1-7.5c-1.5-.4-3.1-.6-4.6-.6-7.7.4-13.7 7-13.3 14.7.4 7.7 7 13.7 14.7 13.3 7.6-.3 13.6-6.9 13.2-14.6zM848.5 676.6c-3.5 6.9-12 9.6-18.9 6-6.9-3.5-9.6-12-6-18.9 3.5-6.9 12-9.6 18.9-6 3.1 1.6 5.5 4.3 6.7 7.6l-8.8 7.2 9.7-2.2c-.1 2.2-.6 4.4-1.6 6.3zM841.5 649.4c-7.7.5-14.4-5.3-15-13-.5-6.8 3.9-12.9 10.5-14.6l-.1 5.8 3.2-6.3c7.7-.4 14.3 5.6 14.7 13.3v.1c.1 1.6-.1 3.2-.6 4.8-1.7 5.6-6.7 9.6-12.7 9.9zM875.6 626.7c-7.7.3-14.2-5.7-14.5-13.5-.3-7.7 5.7-14.2 13.5-14.5 2.5-.1 5 .5 7.2 1.7l-2.5 6.8 5.1-4.9c2.7 2.5 4.4 6 4.5 9.7.1 1.3-.1 2.6-.3 3.9-1.4 6.1-6.7 10.5-13 10.8z"/><path class="st12" d="M871.6 585.4c-3.2.3-6.4 1.4-9.6 1.6s-6.8-.6-8.9-3.1c-1.1-1.4-1.7-3.1-2.6-4.6-.9-1.4-2.1-2.5-3.5-3.3-3.3 7-.4 15.3 6.6 18.7 7 3.3 15.3.4 18.7-6.6.4-.9.8-1.8 1-2.8-.6 0-1.1 0-1.7.1zM875.6 626.7c-7.7.4-14.3-5.6-14.7-13.3-.1-2.3.3-4.6 1.3-6.7 1.1.7 2.1 1.7 2.8 2.8 1 1.5 1.6 3.3 2.8 4.6 2.2 2.6 5.9 3.4 9.3 3.3s6.7-1.1 10-1.4c.5 0 .9-.1 1.4-.1-1.3 6.1-6.6 10.5-12.9 10.8zM841.5 649.4c-7.7.4-14.3-5.6-14.7-13.3-.1-2.2.3-4.5 1.2-6.5 1.2.8 2.2 1.7 3 2.8 1.1 1.5 1.8 3.3 3 4.7 2.4 2.6 6.3 3.6 9.9 3.5s6.8-.9 10.3-1.2c-1.6 5.8-6.7 9.7-12.7 10zM848.5 676.6c-3.2 7.1-11.5 10.2-18.5 7.1s-10.2-11.5-7.1-18.5c1.2.8 2.2 1.7 3.1 2.8 1.3 1.6 2.2 3.5 3.8 5 2.9 2.8 7.5 4 11.6 4.1 2.3-.1 4.7-.2 7.1-.5z"/><path class="st18" d="M813.4 697.3s11.1-.3 14.4-2.7 17-5.2 17.9-1.4 16.7 19 4.2 19.1-29.1-1.9-32.4-4-4.1-11-4.1-11z"/><path class="st19" d="M850.1 710.9c-12.5.1-29.1-2-32.4-4-2.5-1.5-3.5-7.1-3.9-9.7h-.4s.7 8.9 4 11 19.9 4.1 32.4 4c3.6 0 4.8-1.3 4.8-3.2-.5 1.2-1.8 1.9-4.5 1.9z"/><path class="st16" d="M58.4 714.7c-3-5.5.4-12.3 4.3-17.2s8.6-10 8.5-16.3c-.1-9-9.7-14.3-17.3-19.1-5.7-3.5-10.9-7.7-15.6-12.5-2-1.8-3.6-4-4.8-6.4-1.6-3.5-1.5-7.5-1.4-11.4.3-12.8 1-25.7 1.9-38.5"/><path class="st17" d="M19.5 592.6c.2-4.8 2.9-9.1 7-11.5l3.1 6.2-.1-7.5c1.5-.4 3.1-.6 4.6-.6 7.7.4 13.7 7 13.3 14.7-.4 7.7-7 13.7-14.7 13.3-7.6-.3-13.6-6.9-13.2-14.6zM44.5 687.6c3.5 6.9 12 9.6 18.9 6 6.9-3.5 9.6-12 6-18.9s-12-9.6-18.9-6a13.9 13.9 0 00-6.7 7.6l8.8 7.1-9.6-2.2c0 2.3.5 4.4 1.5 6.4zM51.4 660.4c7.7.5 14.4-5.3 15-13 .5-6.8-3.9-12.9-10.5-14.6l.1 5.8-3.2-6.3c-7.7-.4-14.3 5.6-14.7 13.3v.1c-.1 1.6.1 3.2.6 4.8 1.8 5.6 6.8 9.6 12.7 9.9zM17.4 637.7c7.7.3 14.2-5.7 14.5-13.5.3-7.7-5.7-14.2-13.5-14.5-2.5-.1-5 .5-7.2 1.7l2.5 6.8-5.1-4.9c-2.7 2.5-4.4 6-4.6 9.7-.1 1.3.1 2.6.3 3.9 1.5 6.1 6.8 10.5 13.1 10.8z"/><path class="st12" d="M21.4 596.4c3.2.3 6.4 1.4 9.6 1.6s6.8-.6 8.9-3.1c1.1-1.4 1.7-3.1 2.6-4.6.9-1.4 2.1-2.5 3.5-3.3 3.3 7 .4 15.3-6.6 18.7-7 3.3-15.3.4-18.7-6.6-.4-.9-.8-1.8-1-2.8.6 0 1.1 0 1.7.1zM17.4 637.7c7.7.4 14.3-5.6 14.7-13.3.1-2.3-.3-4.6-1.3-6.7-1.1.7-2.1 1.7-2.8 2.8-1 1.5-1.6 3.3-2.8 4.6-2.2 2.6-5.9 3.4-9.3 3.3s-6.7-1.1-10-1.4c-.5 0-.9-.1-1.4-.1 1.3 6.1 6.6 10.5 12.9 10.8zM51.4 660.4c7.7.4 14.3-5.6 14.7-13.3.1-2.2-.3-4.5-1.2-6.5-1.2.8-2.2 1.7-3 2.8-1.1 1.5-1.8 3.3-3 4.7-2.4 2.6-6.4 3.6-9.9 3.5s-6.8-.9-10.3-1.2c1.7 5.8 6.8 9.7 12.7 10zM44.5 687.6c3.2 7.1 11.5 10.2 18.5 7.1 7.1-3.2 10.2-11.5 7.1-18.5-1.2.8-2.2 1.7-3.1 2.8-1.3 1.6-2.2 3.5-3.8 5-2.9 2.8-7.5 4-11.6 4.1-2.3-.1-4.7-.2-7.1-.5z"/><path class="st18" d="M79.6 708.3s-11.1-.3-14.4-2.7-17-5.2-17.9-1.4-16.7 19-4.1 19.1 29.1-1.9 32.4-4 4-11 4-11z"/><path class="st19" d="M42.9 721.9c12.5.1 29.1-2 32.4-4 2.5-1.5 3.6-7.1 3.9-9.7h.4s-.7 8.9-4 11-19.9 4.1-32.4 4c-3.6 0-4.8-1.3-4.8-3.2.5 1.2 1.8 1.9 4.5 1.9z"/></svg>